<?xml version="1.0" standalone="no"?>
<!DOCTYPE svg PUBLIC "-//W3C//DTD SVG 20010904//EN"
 "http://www.w3.org/TR/2001/REC-SVG-20010904/DTD/svg10.dtd">
<svg version="1.0" xmlns="http://www.w3.org/2000/svg"
 width="310.000000pt" height="310.000000pt" viewBox="0 0 310.000000 310.000000"
 preserveAspectRatio="xMidYMid meet">
<metadata>
Created by potrace 1.11, written by Peter Selinger 2001-2013
</metadata>
<g transform="translate(0.000000,310.000000) scale(0.100000,-0.100000)"
fill="#000000" stroke="none">
<path d="M1399 2585 c-2 -2 -40 -5 -84 -6 -159 -5 -258 -39 -285 -98 -6 -13
-13 -43 -17 -67 -4 -35 -10 -44 -32 -50 -14 -4 -30 -8 -36 -10 -131 -39 -310
-133 -440 -233 -132 -101 -172 -143 -186 -195 -13 -46 -15 -180 -5 -214 6 -17
-1 -35 -28 -73 -87 -121 -161 -298 -201 -484 -64 -297 -39 -412 97 -439 84
-17 288 -4 322 20 50 36 65 78 81 232 20 193 123 414 240 515 30 27 55 56 55
65 0 9 5 33 10 53 9 33 15 37 52 43 23 4 69 23 101 43 183 111 339 156 542
155 130 0 258 -22 345 -59 168 -71 257 -129 365 -237 90 -90 125 -138 178
-241 78 -154 98 -223 117 -395 14 -130 46 -161 188 -185 201 -33 261 38 248
290 -3 66 -8 131 -10 145 -12 74 -19 105 -46 207 -76 295 -207 519 -431 742
-92 91 -109 105 -234 190 -91 62 -290 168 -330 175 -5 2 -39 12 -75 23 -111
36 -290 72 -390 79 -52 3 -98 8 -101 10 -3 2 -8 2 -10 -1z"/>
</g>
</svg>
