<?xml version="1.0" encoding="UTF-8" standalone="no"?>
<svg width="273px" height="229px" viewBox="0 0 273 229" version="1.1" xmlns="http://www.w3.org/2000/svg" xmlns:xlink="http://www.w3.org/1999/xlink" xmlns:sketch="http://www.bohemiancoding.com/sketch/ns">
    <!-- Generator: Sketch 3.5.1 (25234) - http://www.bohemiancoding.com/sketch -->
    <title>Illustration/noresults</title>
    <desc>Created with Sketch.</desc>
    <defs>
        <path id="path-1" d="M0,0.599563636 L272.439018,0.599563636 L272.439018,228.167273 L0,228.167273"></path>
    </defs>
    <g id="Phase-3" stroke="none" stroke-width="1" fill="none" fill-rule="evenodd" sketch:type="MSPage">
        <g id="Org-List-(no-results)" sketch:type="MSArtboardGroup" transform="translate(-508.000000, -604.000000)">
            <g id="Illustration/noresults" sketch:type="MSLayerGroup" transform="translate(508.000000, 604.000000)">
                <g id="Group-3">
                    <mask id="mask-2" sketch:name="Clip 2" fill="white">
                        <use xlink:href="#path-1"></use>
                    </mask>
                    <g id="Clip-2"></g>
                    <path d="M251.088254,104.274026 C251.088254,161.53152 204.694068,207.948571 147.464779,207.948571 C90.235489,207.948571 43.841303,161.53152 43.841303,104.274026 C43.841303,47.0165313 90.235489,0.599480364 147.464779,0.599480364 C204.694068,0.599480364 251.088254,47.0165313 251.088254,104.274026" id="Fill-1" opacity="0.495102612" fill="#9AADB5" sketch:type="MSShapeGroup" mask="url(#mask-2)"></path>
                </g>
                <g id="clouds" transform="translate(0.000000, 83.272727)" fill="#FFFFFF" sketch:type="MSShapeGroup">
                    <path d="M248.797302,92.1994804 C248.815613,92.1994804 248.855564,91.8672222 248.855564,91.4791713 C248.855564,78.2887713 238.16778,67.810564 224.983878,67.810564 C216.330277,67.810564 208.775335,72.5412876 204.58878,79.4371022 C202.810951,78.6918113 200.86,77.9007204 198.811667,77.9007204 C190.648302,77.9007204 184.025555,81.3740258 183.869911,92.1994804 L248.797302,92.1994804 Z" id="Fill-4"></path>
                    <path d="M272.352208,92.1994804 C272.383003,92.1994804 272.438769,92.0620804 272.438769,91.7664622 C272.438769,87.3172004 268.834003,83.9246695 264.386101,83.9246695 C259.938198,83.9246695 256.333433,87.2089458 256.333433,91.6590404 C256.333433,91.9546585 256.389198,92.1994804 256.419994,92.1994804 L272.352208,92.1994804 Z" id="Fill-6"></path>
                    <path d="M79.6489152,24.7485713 C79.7404701,24.7485713 79.8170433,24.0915495 79.8170433,23.5202985 C79.8170433,17.9909895 75.3366805,13.7290913 69.8100951,13.7290913 C68.7488909,13.7290913 67.7467811,14.0488585 66.7871195,14.3553022 C62.4207841,6.11213491 53.7671835,0.545353091 43.7926957,0.545353091 C34.448272,0.545353091 26.2782476,5.51840036 21.6905159,12.9188476 C19.9468116,12.2843095 18.0716012,11.4923858 16.1081652,11.4923858 C7.99140915,11.4923858 1.276275,16.4212985 0.00033292683,24.7485713 L79.6489152,24.7485713 Z" id="Fill-9"></path>
                </g>
                <g id="Group-4" transform="translate(51.603659, 9.992727)" fill="#FFFFFF" sketch:type="MSShapeGroup">
                    <path d="M79.4911079,183.661831 L81.8507268,183.661831 L81.8507268,181.301049 L83.515361,179.635594 L81.8507268,177.969307 L81.8507268,175.609358 L79.4911079,175.609358 L77.8256415,173.943071 L76.1610073,175.609358 L73.8013884,175.609358 L73.8013884,177.969307 L72.1367543,179.635594 L73.8013884,181.301049 L73.8013884,183.661831 L76.1610073,183.661831 L77.8256415,185.328118 L79.4911079,183.661831 Z" id="Fill-11"></path>
                    <path d="M21.028907,73.5967695 C21.028907,74.5161004 20.2839832,75.262224 19.3642729,75.262224 C18.4453948,75.262224 17.6996387,74.5161004 17.6996387,73.5967695 C17.6996387,72.6774385 18.4453948,71.9313149 19.3642729,71.9313149 C20.2839832,71.9313149 21.028907,72.6774385 21.028907,73.5967695" id="Fill-13"></path>
                    <path d="M185.827687,102.742224 C185.827687,103.661555 185.082764,104.407679 184.163053,104.407679 C183.244175,104.407679 182.498419,103.661555 182.498419,102.742224 C182.498419,101.822893 183.244175,101.076769 184.163053,101.076769 C185.082764,101.076769 185.827687,101.822893 185.827687,102.742224" id="Fill-15"></path>
                    <path d="M149.205736,174.356769 C149.205736,175.2761 148.460812,176.022224 147.541102,176.022224 C146.622224,176.022224 145.876468,175.2761 145.876468,174.356769 C145.876468,173.437439 146.622224,172.691315 147.541102,172.691315 C148.460812,172.691315 149.205736,173.437439 149.205736,174.356769" id="Fill-17"></path>
                    <path d="M137.421042,19.4556735 L139.780661,19.4556735 L139.780661,17.0948916 L141.445295,15.4294371 L139.780661,13.7631498 L139.780661,11.4032007 L137.421042,11.4032007 L135.755576,9.73691345 L134.090941,11.4032007 L131.731323,11.4032007 L131.731323,13.7631498 L130.066688,15.4294371 L131.731323,17.0948916 L131.731323,19.4556735 L134.090941,19.4556735 L135.755576,21.1219607 L137.421042,19.4556735 Z" id="Fill-19"></path>
                    <path d="M124.236224,1.982224 C124.236224,2.90155491 123.4913,3.64767855 122.57159,3.64767855 C121.652712,3.64767855 120.906956,2.90155491 120.906956,1.982224 C120.906956,1.06289309 121.652712,0.316769455 122.57159,0.316769455 C123.4913,0.316769455 124.236224,1.06289309 124.236224,1.982224" id="Fill-21"></path>
                    <path d="M65.974029,11.9749513 C65.974029,12.8942822 65.2291052,13.6404058 64.3093948,13.6404058 C63.3905168,13.6404058 62.6447607,12.8942822 62.6447607,11.9749513 C62.6447607,11.0556204 63.3905168,10.3094967 64.3093948,10.3094967 C65.2291052,10.3094967 65.974029,11.0556204 65.974029,11.9749513" id="Fill-23"></path>
                    <path d="M22.6935412,24.4658604 C22.6935412,25.3851913 21.9486174,26.1313149 21.028907,26.1313149 C20.110029,26.1313149 19.3642729,25.3851913 19.3642729,24.4658604 C19.3642729,23.5465295 20.110029,22.8004058 21.028907,22.8004058 C21.9486174,22.8004058 22.6935412,23.5465295 22.6935412,24.4658604" id="Fill-25"></path>
                    <path d="M60.5037915,24.5734487 C60.5037915,25.1705142 60.0202152,25.6543287 59.4234439,25.6543287 C58.8266726,25.6543287 58.342264,25.1705142 58.342264,24.5734487 C58.342264,23.9763833 58.8266726,23.4925687 59.4234439,23.4925687 C60.0202152,23.4925687 60.5037915,23.9763833 60.5037915,24.5734487" id="Fill-27"></path>
                    <path d="M117.101352,42.0607215 C117.101352,42.6577869 116.617776,43.1416015 116.021005,43.1416015 C115.424234,43.1416015 114.939825,42.6577869 114.939825,42.0607215 C114.939825,41.463656 115.424234,40.9798415 116.021005,40.9798415 C116.617776,40.9798415 117.101352,41.463656 117.101352,42.0607215" id="Fill-29"></path>
                    <path d="M76.7941509,90.2513149 C76.7941509,91.1706458 76.0492271,91.9167695 75.1295168,91.9167695 C74.2106387,91.9167695 73.4648826,91.1706458 73.4648826,90.2513149 C73.4648826,89.331984 74.2106387,88.5858604 75.1295168,88.5858604 C76.0492271,88.5858604 76.7941509,89.331984 76.7941509,90.2513149" id="Fill-33"></path>
                    <path d="M69.6592793,130.329812 C69.6592793,130.926878 69.175703,131.410692 68.5789317,131.410692 C67.9821604,131.410692 67.4977518,130.926878 67.4977518,130.329812 C67.4977518,129.732747 67.9821604,129.248932 68.5789317,129.248932 C69.175703,129.248932 69.6592793,129.732747 69.6592793,130.329812" id="Fill-35"></path>
                    <path d="M175.839883,36.1240422 C175.839883,37.0433731 175.094959,37.7894967 174.175248,37.7894967 C173.25637,37.7894967 172.510614,37.0433731 172.510614,36.1240422 C172.510614,35.2047113 173.25637,34.4585876 174.175248,34.4585876 C175.094959,34.4585876 175.839883,35.2047113 175.839883,36.1240422" id="Fill-37"></path>
                    <path d="M173.698913,72.8716305 C173.698913,73.468696 173.215337,73.9525105 172.618566,73.9525105 C172.021795,73.9525105 171.537386,73.468696 171.537386,72.8716305 C171.537386,72.2745651 172.021795,71.7907505 172.618566,71.7907505 C173.215337,71.7907505 173.698913,72.2745651 173.698913,72.8716305" id="Fill-39"></path>
                    <path d="M149.561718,96.1879942 C149.561718,96.7850596 149.078142,97.2688742 148.481371,97.2688742 C147.884599,97.2688742 147.400191,96.7850596 147.400191,96.1879942 C147.400191,95.5909287 147.884599,95.1071142 148.481371,95.1071142 C149.078142,95.1071142 149.561718,95.5909287 149.561718,96.1879942" id="Fill-41"></path>
                    <path d="M112.10745,145.318903 C112.10745,145.915969 111.623874,146.399783 111.027102,146.399783 C110.430331,146.399783 109.945923,145.915969 109.945923,145.318903 C109.945923,144.721838 110.430331,144.238023 111.027102,144.238023 C111.623874,144.238023 112.10745,144.721838 112.10745,145.318903" id="Fill-43"></path>
                    <path d="M152.890987,139.489812 C152.890987,140.086878 152.40741,140.570692 151.810639,140.570692 C151.213868,140.570692 150.729459,140.086878 150.729459,139.489812 C150.729459,138.892747 151.213868,138.408932 151.810639,138.408932 C152.40741,138.408932 152.890987,138.892747 152.890987,139.489812" id="Fill-45"></path>
                    <path d="M140.40623,94.5225396 C140.40623,95.1196051 139.922654,95.6034196 139.325883,95.6034196 C138.729112,95.6034196 138.244703,95.1196051 138.244703,94.5225396 C138.244703,93.9254742 138.729112,93.4416596 139.325883,93.4416596 C139.922654,93.4416596 140.40623,93.9254742 140.40623,94.5225396" id="Fill-47"></path>
                    <path d="M2.24159634,71.206176 C2.24159634,71.8032415 1.75802012,72.287056 1.16124878,72.287056 C0.564477439,72.287056 0.0800689024,71.8032415 0.0800689024,71.206176 C0.0800689024,70.6091105 0.564477439,70.125296 1.16124878,70.125296 C1.75802012,70.125296 2.24159634,70.6091105 2.24159634,71.206176" id="Fill-49"></path>
                    <path d="M22.2172061,46.2243578 C22.2172061,46.8214233 21.7336299,47.3052378 21.1368585,47.3052378 C20.5400872,47.3052378 20.0556787,46.8214233 20.0556787,46.2243578 C20.0556787,45.6272924 20.5400872,45.1434778 21.1368585,45.1434778 C21.7336299,45.1434778 22.2172061,45.6272924 22.2172061,46.2243578" id="Fill-51"></path>
                    <path d="M40.5281817,103.68254 C40.5281817,104.279605 40.0446055,104.76342 39.4478341,104.76342 C38.8510628,104.76342 38.3666543,104.279605 38.3666543,103.68254 C38.3666543,103.085474 38.8510628,102.60166 39.4478341,102.60166 C40.0446055,102.60166 40.5281817,103.085474 40.5281817,103.68254" id="Fill-53"></path>
                    <path d="M82.1440354,62.046176 C82.1440354,62.6432415 81.6604591,63.127056 81.0636878,63.127056 C80.4669165,63.127056 79.9825079,62.6432415 79.9825079,62.046176 C79.9825079,61.4491105 80.4669165,60.965296 81.0636878,60.965296 C81.6604591,60.965296 82.1440354,61.4491105 82.1440354,62.046176" id="Fill-55"></path>
                    <path d="M11.3970841,139.489812 C11.3970841,140.086878 10.9135079,140.570692 10.3167366,140.570692 C9.71996524,140.570692 9.23555671,140.086878 9.23555671,139.489812 C9.23555671,138.892747 9.71996524,138.408932 10.3167366,138.408932 C10.9135079,138.408932 11.3970841,138.892747 11.3970841,139.489812" id="Fill-57"></path>
                    <path d="M112.939767,127.831631 C112.939767,128.428696 112.456191,128.912511 111.85942,128.912511 C111.262648,128.912511 110.77824,128.428696 110.77824,127.831631 C110.77824,127.234565 111.262648,126.750751 111.85942,126.750751 C112.456191,126.750751 112.939767,127.234565 112.939767,127.831631" id="Fill-59"></path>
                    <path d="M62.1684256,166.137085 C62.1684256,166.734151 61.6848494,167.217965 61.088078,167.217965 C60.4913067,167.217965 60.0068982,166.734151 60.0068982,166.137085 C60.0068982,165.54002 60.4913067,165.056205 61.088078,165.056205 C61.6848494,165.056205 62.1684256,165.54002 62.1684256,166.137085" id="Fill-61"></path>
                </g>
                <path d="M135.957579,145.922797 L133.214262,147.360084 L106.084887,95.5236444 L108.828204,94.0863571 L135.957579,145.922797 Z" id="Fill-63" fill="#727272" sketch:type="MSShapeGroup"></path>
                <path d="M102.955208,145.523005 L99.1232204,148.588274 L95.717379,142.081343 L100.441611,140.720667 L102.955208,145.523005 Z" id="Fill-65" fill="#727272" sketch:type="MSShapeGroup"></path>
                <path d="M95.1004655,130.514928 L91.2684777,133.580197 L87.8626363,127.073266 L92.586868,125.712589 L95.1004655,130.514928 Z" id="Fill-67" fill="#727272" sketch:type="MSShapeGroup"></path>
                <path d="M139.698178,123.143376 L134.821633,125.698183 L127.002014,110.757391 L131.878559,108.202583 L139.698178,123.143376 Z" id="Fill-69" fill="#A8A7A2" sketch:type="MSShapeGroup"></path>
                <path d="M144.777726,120.482313 L139.90118,123.03712 L132.081562,108.096327 L136.958107,105.54152 L144.777726,120.482313 Z" id="Fill-71" fill="#898989" sketch:type="MSShapeGroup"></path>
                <path d="M148.308582,113.873123 L140.994179,117.705334 L139.717405,115.265443 L147.031807,111.434065 L148.308582,113.873123 Z" id="Fill-73" fill="#898989" sketch:type="MSShapeGroup"></path>
                <path d="M145.675463,108.842035 L138.361061,112.674245 L137.084287,110.234355 L144.398689,106.402976 L145.675463,108.842035 Z" id="Fill-75" fill="#898989" sketch:type="MSShapeGroup"></path>
                <path d="M155.321602,112.433171 L147.397944,116.584316 L141.652459,105.607305 L149.57695,101.45616 L155.321602,112.433171 Z" id="Fill-77" fill="#727272" sketch:type="MSShapeGroup"></path>
                <path d="M122.282277,136.098364 L106.312609,144.464775 L95.0530235,122.9496 L111.021859,114.583189 L122.282277,136.098364 Z" id="Fill-79" fill="#6B5E5A" sketch:type="MSShapeGroup"></path>
                <path d="M149.021045,72.9414131 C140.081127,77.6246713 138.83182,94.2825476 146.940252,109.775439 C155.049518,125.268329 169.444441,133.729671 178.384359,129.046413 L149.021045,72.9414131 Z" id="Fill-81" fill="#D1D1D1" sketch:type="MSShapeGroup"></path>
                <path d="M183.904869,90.5630047 C184.874518,92.4158229 184.159558,94.7033247 182.307652,95.673452 C180.456579,96.6435793 178.169372,95.9282665 177.199722,94.0754484 C176.230073,92.2234629 176.945866,89.9351284 178.796939,88.9650011 C180.648844,87.9948738 182.935219,88.7101865 183.904869,90.5630047" id="Fill-83" fill="#727272" sketch:type="MSShapeGroup"></path>
                <path d="M147.567403,130.967848 L144.328858,132.664113 L126.609659,98.8087535 L129.848205,97.1116553 L147.567403,130.967848 Z" id="Fill-85" fill="#D1D1D1" sketch:type="MSShapeGroup"></path>
                <path d="M179.463708,94.4437636 L168.021013,100.341138 L166.744238,97.9012473 L178.186934,92.0047055 L179.463708,94.4437636 Z" id="Fill-87" fill="#727272" sketch:type="MSShapeGroup"></path>
                <path d="M184.300053,126.013204 L178.302376,129.155084 L148.848339,72.8777095 L154.846016,69.7358295 L184.300053,126.013204 Z" id="Fill-89" fill="#898989" sketch:type="MSShapeGroup"></path>
                <path d="M163.496038,88.8300993 L159.816364,90.7578629 L150.645895,73.2364484 L154.325568,71.307852 L163.496038,88.8300993 Z" id="Fill-91" fill="#9B9B9B" sketch:type="MSShapeGroup"></path>
                <path d="M120.156622,143.86646 L142.506,132.157482 L126.072732,100.758668 L103.723354,112.466813 L120.156622,143.86646 Z" id="Fill-93" fill="#D1D1D1" sketch:type="MSShapeGroup"></path>
                <path d="M110.135691,144.011188 L118.937444,144.504996 L102.504176,113.105348 L98.0071665,120.837221 L110.135691,144.011188 Z" id="Fill-95" fill="#D1D1D1" sketch:type="MSShapeGroup"></path>
                <path d="M109.06042,144.574528 L104.452713,152.094056 L88.0186125,120.694408 L96.931896,121.400561 L109.06042,144.574528 Z" id="Fill-97" fill="#D1D1D1" sketch:type="MSShapeGroup"></path>
                <path d="M127.102974,124.530616 L123.012968,122.010784 L123.272651,117.212609 L127.623172,114.933435 L131.713178,117.453267 L131.453495,122.251442 L127.102974,124.530616 Z" id="Fill-99" fill="#765A9C" sketch:type="MSShapeGroup"></path>
                <path d="M122.304083,131.706893 L124.437312,130.589373 L116.843251,116.079101 L114.710022,117.196621 L122.304083,131.706893 Z" id="Fill-101" fill="#A8A7A2" sketch:type="MSShapeGroup"></path>
                <path d="M118.799279,133.543057 L120.932508,132.425537 L113.338447,117.915264 L111.205218,119.032784 L118.799279,133.543057 Z" id="Fill-103" fill="#A8A7A2" sketch:type="MSShapeGroup"></path>
                <path d="M122.723405,92.6621436 L96.7326393,106.278067 L57.2783131,30.8929327 L83.2690784,17.2770091 L122.723405,92.6621436 Z" id="Fill-105" fill="#A5A5A5" sketch:type="MSShapeGroup"></path>
                <path d="M85.7599537,80.9001207 L108.007789,69.2444371 L119.657731,91.5040698 L97.4098957,103.158921 L85.7599537,80.9001207 Z" id="Fill-107" opacity="0.505072295" fill="#969696" sketch:type="MSShapeGroup"></path>
                <path d="M72.9932085,56.5066244 L95.2410439,44.8509407 L106.890986,67.1105735 L84.6431506,78.7654244 L72.9932085,56.5066244 Z" id="Fill-109" opacity="0.505072295" fill="#969696" sketch:type="MSShapeGroup"></path>
                <path d="M60.2264634,32.1132113 L82.4742988,20.4575276 L94.1242409,42.7171604 L71.8764055,54.3720113 L60.2264634,32.1132113 Z" id="Fill-111" opacity="0.505072295" fill="#969696" sketch:type="MSShapeGroup"></path>
                <path d="M82.3680951,20.2545087 L94.0180372,42.5133087 L71.7693695,54.1689924" id="Fill-113" fill="#AFAFAF" sketch:type="MSShapeGroup"></path>
                <path d="M95.2146595,44.8003942 L106.864602,67.0591942 L84.6159338,78.7148778" id="Fill-115" fill="#AFAFAF" sketch:type="MSShapeGroup"></path>
                <path d="M108.061224,69.3463629 L119.711166,91.6051629 L97.4624982,103.260847" id="Fill-117" fill="#AFAFAF" sketch:type="MSShapeGroup"></path>
                <path d="M187.14974,214.551016 L161.158975,228.16694 L121.704648,152.781805 L147.695414,139.165881 L187.14974,214.551016 Z" id="Fill-119" fill="#A5A5A5" sketch:type="MSShapeGroup"></path>
                <path d="M150.186289,202.788993 L172.434124,191.133309 L184.084066,213.392942 L161.836231,225.047793 L150.186289,202.788993 Z" id="Fill-121" opacity="0.505072295" fill="#969696" sketch:type="MSShapeGroup"></path>
                <path d="M137.419544,178.395497 L159.667379,166.739813 L171.317321,188.999446 L149.069486,200.654297 L137.419544,178.395497 Z" id="Fill-123" opacity="0.505072295" fill="#969696" sketch:type="MSShapeGroup"></path>
                <path d="M124.652716,154.002084 L146.900551,142.3464 L158.550493,164.606033 L136.302658,176.260884 L124.652716,154.002084 Z" id="Fill-125" opacity="0.505072295" fill="#969696" sketch:type="MSShapeGroup"></path>
                <path d="M146.79443,142.143381 L158.444373,164.402181 L136.195705,176.057865" id="Fill-127" fill="#AFAFAF" sketch:type="MSShapeGroup"></path>
                <path d="M159.640995,166.689267 L171.290937,188.948067 L149.042269,200.60375" id="Fill-129" fill="#AFAFAF" sketch:type="MSShapeGroup"></path>
                <path d="M172.487559,191.235235 L184.137501,213.494035 L161.888834,225.149719" id="Fill-131" fill="#AFAFAF" sketch:type="MSShapeGroup"></path>
                <path d="M181.480828,90.5068789 C182.00935,91.5169771 181.619825,92.7652353 180.609392,93.2940171 C179.599792,93.8236316 178.352148,93.4330825 177.823627,92.4229844 C177.295106,91.4120535 177.68463,90.164628 178.695063,89.6350135 C179.704664,89.1062316 180.952307,89.4967807 181.480828,90.5068789" id="Fill-133" fill="#878787" sketch:type="MSShapeGroup"></path>
                <g id="Group-2" transform="translate(191.432927, 44.967273)" stroke="#8C8C8C" sketch:type="MSShapeGroup">
                    <path d="M4.63459116,40.082328 C6.56306982,43.9711644 7.75827713,47.3062371 7.30549665,47.5310735 C6.85188384,47.7559098 4.92174055,44.7855716 2.99326189,40.8967353 C1.06478323,37.0078989 -0.130424085,33.6736589 0.322356402,33.4479898 C0.775969207,33.2231535 2.7061125,36.1934916 4.63459116,40.082328 L4.63459116,40.082328 Z" id="Stroke-135"></path>
                    <path d="M18.4539677,31.8526509 C22.4907055,39.9950582 24.8037146,47.0715745 23.6193274,47.65948 C22.4349402,48.2473855 18.2026079,42.1235091 14.1650378,33.9811018 C10.1283,25.8386945 7.81529085,18.7621782 8.99967805,18.1742727 C10.1840652,17.5863673 14.4172299,23.7102436 18.4539677,31.8526509 L18.4539677,31.8526509 Z" id="Stroke-137"></path>
                    <path d="M32.9556777,23.5585207 C39.7648637,37.2910262 43.4745009,49.3206044 41.2430588,50.4289644 C39.0107845,51.5364916 31.6822326,41.3022735 24.8730466,27.569768 C18.064693,13.8380953 14.3542235,1.80768436 16.5864979,0.700157091 C18.8179399,-0.408202909 26.1473241,9.82601527 32.9556777,23.5585207 L32.9556777,23.5585207 Z" id="Stroke-139"></path>
                </g>
            </g>
        </g>
    </g>
</svg>